<svg xmlns="http://www.w3.org/2000/svg" width="59.701" height="32.125" viewBox="0 0 59.701 32.125">
  <path id="패스_82" data-name="패스 82" d="M20.319-17.386H12.3v-5.37a9.637,9.637,0,0,0-.257-2.923,1.1,1.1,0,0,0-1.133-.581,1.184,1.184,0,0,0-1.257.7,10.721,10.721,0,0,0-.267,3.047v14.32a9.994,9.994,0,0,0,.267,2.933,1.141,1.141,0,0,0,1.2.686,1.127,1.127,0,0,0,1.171-.686A11.158,11.158,0,0,0,12.3-8.474V-12.34h8.017v1.2a23.634,23.634,0,0,1-.676,6.779,6.929,6.929,0,0,1-2.99,3.5,10.247,10.247,0,0,1-5.7,1.5A11.815,11.815,0,0,1,5.142-.628,6.2,6.2,0,0,1,2.114-4.161a23.183,23.183,0,0,1-.743-6.789v-9.007a40.051,40.051,0,0,1,.229-5,7,7,0,0,1,1.362-3.209A7.592,7.592,0,0,1,6.1-30.593a11.351,11.351,0,0,1,4.618-.885,11.289,11.289,0,0,1,5.846,1.371A6.574,6.574,0,0,1,19.6-26.689a20.578,20.578,0,0,1,.724,6.37Zm2.1-13.444h8a21.085,21.085,0,0,1,5.741.59,5.692,5.692,0,0,1,3.152,2.39q1.2,1.8,1.2,5.8a6.245,6.245,0,0,1-.847,3.771,5.907,5.907,0,0,1-3.342,1.638,5.933,5.933,0,0,1,3.771,2.085,8.037,8.037,0,0,1,.99,4.466v2.856a11.34,11.34,0,0,1-.714,4.627A3.85,3.85,0,0,1,38.087-.552a23.355,23.355,0,0,1-6.4.552H22.414Zm8.017,5.275V-18.7q.514-.019.8-.019,1.181,0,1.5-.581a9.506,9.506,0,0,0,.324-3.323,5.371,5.371,0,0,0-.267-2.028,1.278,1.278,0,0,0-.7-.733A6.179,6.179,0,0,0,30.431-25.556Zm0,11.654v8.626a3.421,3.421,0,0,0,2.161-.533,3.739,3.739,0,0,0,.467-2.342v-2.875a4.061,4.061,0,0,0-.419-2.4A3.756,3.756,0,0,0,30.431-13.9ZM43.172-30.831h5.675a43.387,43.387,0,0,1,7.684.438,5.289,5.289,0,0,1,3.275,2.238q1.266,1.8,1.266,5.741,0,3.6-.9,4.837t-3.523,1.485a6.023,6.023,0,0,1,3.2,1.581,4.72,4.72,0,0,1,1.019,1.819,28.722,28.722,0,0,1,.2,4.561V0H53.627V-10.245a7.067,7.067,0,0,0-.39-3.066q-.39-.59-2.047-.59V0H43.172Zm8.017,5.275V-18.7a3.528,3.528,0,0,0,1.895-.371q.543-.371.543-2.409v-1.695A2.57,2.57,0,0,0,53.1-25.1,2.979,2.979,0,0,0,51.189-25.556Z" transform="translate(-1.371 31.478)"/>
</svg>
